<svg width="986" height="549" viewBox="0 0 986 549" fill="none" xmlns="http://www.w3.org/2000/svg">
<rect width="986" height="549" fill="#E9ECEF"/>
<path d="M723 0C723 288.845 488.845 523 200 523H4.59776C2.05848 523 0 520.942 0 518.402L0 0L723 0V0Z" fill="#6C757D"/>
<path d="M654 0C654 259.574 443.574 470 184 470L4.15901 470C1.86207 470 0 468.138 0 465.841L0 0L654 0V0Z" fill="#495057"/>
<path d="M582 0C582 228.094 397.094 413 169 413L3.7011 413C1.65703 413 0 411.343 0 409.299L0 0L582 0V0Z" fill="#343A40"/>
</svg>
